Coordinates
version=1
nRows=60
nColumns=12
inDegrees=yes

Units are S.I. units (second, meters, Newtons, ...)
Angles are in degrees

endheader
time	SC_y	SC_z	SC_x	AC_y	AC_z	AC_x	GH_y	GH_z	GH_yy	EL_x	PS_y
       0.0              -28.11          35.57           38.4          46.85         -16.69         -10.32         -174.9         -1.652         -25.06          102.2          51.26
   0.03714              -28.11          35.56           38.4          46.84         -16.69         -10.31         -174.9         -1.655         -25.05          102.2          51.26
   0.07429              -28.11          35.56           38.4          46.84         -16.68         -10.31         -174.8         -1.657         -25.04          102.2          51.26
    0.1114              -28.11          35.56           38.4          46.84         -16.68         -10.31         -174.8          -1.66         -25.03          102.2          51.26
    0.1486              -28.12          35.56           38.4          46.84         -16.67         -10.31         -174.8         -1.663         -25.01          102.2          51.26
    0.1857              -28.12          35.56           38.4          46.83         -16.67         -10.31         -174.8         -1.667          -25.0          102.2          51.26
    0.2229              -28.12          35.55           38.4          46.83         -16.67         -10.31         -174.8          -1.67         -24.98          102.2          51.27
      0.26              -28.12          35.55           38.4          46.83         -16.66         -10.31         -174.8         -1.674         -24.97          102.2          51.27
    0.2971              -28.13          35.55          38.39          46.83         -16.66          -10.3         -174.8         -1.678         -24.95          102.2          51.27
    0.3343              -28.13          35.54          38.39          46.82         -16.65          -10.3         -174.8         -1.682         -24.93          102.1          51.27
    0.3714              -28.13          35.54          38.39          46.82         -16.64          -10.3         -174.8         -1.687         -24.91          102.1          51.27
    0.4086              -28.14          35.54          38.39          46.81         -16.64          -10.3         -174.8         -1.692         -24.89          102.1          51.27
    0.4457              -28.14          35.53          38.39          46.81         -16.63         -10.29         -174.8         -1.698         -24.87          102.1          51.28
    0.4829              -28.15          35.53          38.39           46.8         -16.62         -10.29         -174.8         -1.703         -24.84          102.1          51.28
      0.52              -28.15          35.53          38.39           46.8         -16.61         -10.29         -174.8          -1.71         -24.81          102.1          51.28
    0.5571              -28.16          35.52          38.38          46.79         -16.61         -10.29         -174.7         -1.717         -24.78          102.1          51.28
    0.5943              -28.16          35.52          38.38          46.79          -16.6         -10.28         -174.7         -1.724         -24.75          102.1          51.29
    0.6314              -28.17          35.51          38.38          46.78         -16.59         -10.28         -174.7         -1.732         -24.71          102.1          51.29
    0.6686              -28.18           35.5          38.38          46.77         -16.57         -10.28         -174.7         -1.741         -24.68          102.0          51.29
    0.7057              -28.18           35.5          38.38          46.77         -16.56         -10.27         -174.7         -1.751         -24.63          102.0           51.3
    0.7429              -28.19          35.49          38.37          46.76         -16.55         -10.27         -174.7         -1.762         -24.59          102.0           51.3
      0.78               -28.2          35.48          38.37          46.75         -16.53         -10.26         -174.7         -1.773         -24.54          102.0           51.3
    0.8171              -28.21          35.47          38.37          46.74         -16.52         -10.26         -174.6         -1.786         -24.48          102.0          51.31
    0.8543              -28.22          35.46          38.36          46.73          -16.5         -10.25         -174.6         -1.801         -24.42          101.9          51.31
    0.8914              -28.24          35.45          38.36          46.71         -16.48         -10.24         -174.6         -1.817         -24.35          101.9          51.32
    0.9286              -28.25          35.44          38.35           46.7         -16.45         -10.23         -174.5         -1.835         -24.27          101.9          51.33
    0.9657              -28.27          35.42          38.35          46.68         -16.43         -10.23         -174.5         -1.855         -24.18          101.9          51.34
     1.003              -28.28          35.41          38.34          46.67          -16.4         -10.22         -174.5         -1.877         -24.09          101.8          51.34
      1.04               -28.3          35.39          38.34          46.65         -16.37          -10.2         -174.4         -1.903         -23.97          101.8          51.35
     1.077              -28.33          35.37          38.33          46.62         -16.33         -10.19         -174.4         -1.932         -23.85          101.7          51.36
     1.114              -28.35          35.34          38.32           46.6         -16.29         -10.18         -174.3         -1.965         -23.71          101.7          51.38
     1.151              -28.38          35.32          38.31          46.57         -16.24         -10.16         -174.3         -2.003         -23.54          101.6          51.39
     1.189              -28.42          35.29           38.3          46.53         -16.18         -10.14         -174.2         -2.046         -23.35          101.5          51.41
     1.226              -28.46          35.25          38.28          46.49         -16.12         -10.12         -174.1         -2.097         -23.13          101.4          51.43
     1.263               -28.5          35.21          38.27          46.44         -16.04         -10.09         -174.0         -2.157         -22.87          101.3          51.45
       1.3              -28.56          35.16          38.25          46.39         -15.95         -10.06         -173.9         -2.227         -22.57          101.2          51.47
     1.337              -28.62           35.1          38.23          46.32         -15.84         -10.02         -173.7          -2.31         -22.21          101.1          51.51
     1.374               -28.7          35.03           38.2          46.24         -15.71         -9.979         -173.6          -2.41         -21.77          100.9          51.54
     1.411              -28.79          34.94          38.17          46.14         -15.56         -9.925         -173.4          -2.53         -21.25          100.7          51.59
     1.449              -28.91          34.84          38.13          46.03         -15.37          -9.86         -173.1         -2.678         -20.61          100.5          51.64
     1.486              -29.05          34.71          38.08          45.88         -15.13         -9.779         -172.8          -2.86         -19.82          100.1          51.71
     1.523              -29.23          34.55          38.02           45.7         -14.84         -9.679         -172.4         -3.087         -18.83          99.75           51.8
      1.56              -29.45          34.35          37.95          45.47         -14.47         -9.552         -172.0         -3.373         -17.59          99.27          51.91
     1.597              -29.74          34.09          37.85          45.18         -14.01          -9.39         -171.3         -3.737         -16.01          98.65          52.04
     1.634               -30.1          33.76          37.73          44.81         -13.41         -9.184         -170.6         -4.202         -13.99          97.85          52.22
     1.671              -30.57          33.34          37.57          44.33         -12.64         -8.919         -169.5         -4.799          -11.4          96.84          52.44
     1.709              -31.16           32.8          37.37          43.72         -11.66         -8.581         -168.3         -5.562         -8.088          95.54          52.73
     1.746              -31.91          32.12          37.11          42.96         -10.42         -8.155         -166.6         -6.521         -3.924           93.9          53.09
     1.783              -32.82          31.29           36.8          42.03         -8.918         -7.637         -164.7          -7.69           1.15          91.91          53.53
      1.82              -33.88          30.33          36.44          40.94         -7.174         -7.036         -162.4         -9.045          7.032           89.6          54.04
     1.857              -35.03          29.29          36.05          39.77         -5.286         -6.385         -159.9         -10.51           13.4           87.1          54.59
     1.894              -36.17          28.25          35.67           38.6         -3.398         -5.735         -157.4         -11.98          19.77           84.6          55.14
     1.931              -37.23          27.29          35.31          37.52         -1.654         -5.134         -155.1         -13.33          25.65          82.29          55.65
     1.969              -38.15          26.46           35.0          36.59        -0.1499         -4.615         -153.2          -14.5          30.73           80.3          56.09
     2.006               -38.9          25.78          34.74          35.82          1.085          -4.19         -151.5         -15.46          34.89          78.66          56.45
     2.043              -39.49          25.24          34.54          35.21          2.066         -3.851         -150.3         -16.22           38.2          77.36          56.74
      2.08              -39.96          24.82          34.38          34.74          2.835         -3.586         -149.2         -16.82          40.79          76.35          56.96
     2.117              -40.32          24.49          34.26          34.36          3.434          -3.38         -148.5         -17.29          42.82          75.55          57.14
     2.154              -40.61          24.23          34.16          34.07          3.902         -3.219         -147.8         -17.65          44.39          74.93          57.27
     2.191              -40.83          24.03          34.09          33.85           4.27         -3.092         -147.4         -17.94          45.64          74.45          57.38
